# xmcd
#
# Track frame offsets:
#	150
#	11310
#	26488
#	27991
#	44713
#	61149
#	62272
#	74015
#	94715
#	114518
#	136191
#	153408
#	171183
#
# Disc length: 2849 seconds
#
# Revision: 0
# Processed by: cddbd v1.5.2PL0 Copyright (c) Steve Scherf et al.
# Submitted via: EasyCDDAExtractor 4.6.9.1
#
DISCID=a50b1f0d
DTITLE=Canailles - Manger du bois
DYEAR=2012
DGENRE=Québécois
TTITLE0=Parle-moi
TTITLE1=La route
TTITLE2=Bien-être
TTITLE3=Ramone-moi
TTITLE4=Dans mon litte
TTITLE5=Bécik
TTITLE6=Train
TTITLE7=Muraille de Chine
TTITLE8=Dimanche
TTITLE9=R'tourne de bord
TTITLE10=J'l'haïs
TTITLE11=Pièce no 12
TTITLE12=Pièce no 13
EXTD=
EXTT0=
EXTT1=
EXTT2=
EXTT3=
EXTT4=
EXTT5=
EXTT6=
EXTT7=
EXTT8=
EXTT9=
EXTT10=
EXTT11=
EXTT12=
PLAYORDER=
